 http://img717.imageshack.us/img717/4643/husbandforhire2008.jpg

Country.......: USA
Genre.........: Comedy
Date release..: 19.01.2008 [World]
Director......: Kris Isacsson
Writers.......: Kris Isacsson
Duration......: 87 min.
More..........: http://www.imdb.com/title/tt1043904
Trailer.......:

Pilot :
Victor Diaz's youngest daughter Lola must marry a man approved by her dad before her approaching birthday to cash, or loose forever, a fat trust fund her mother put aside. So she picks up hunky day laborer Jesus, offering him $100,000 a year to play the part after a make-over to Victor's taste. Then she gradually learns he's no Latino but a 'would be' musician Bo, and the pair starts falling in love. Meanwhile his fiancée and her fiancé Marco, hand-picked by her father to help in the business and keep her in line, are at close behind and Bo's sleazy brother Bread worms his way in. In fact Marco is in league with Lola's elder sister Simona.

Cats :
Mark Consuelos   	 ...  	Bo
Nadine Velazquez 	... 	Lola
Tempestt Bledsoe 	... 	Nina
Luce Rains 	... 	Private Detective
Erik Estrada 	... 	Victor Diaz
Mario Lopez 	... 	Marco
Rosa Arredondo 	... 	Simona
Mike Miller 	... 	Rex (as Michael Miller)
William Sterchi 	... 	Limo Driver
Jayce Bartok 	... 	Bread
Erin Ross 	... 	Nikki
Kate Micucci 	... 	Bubble
Casey Messer 	... 	Cheesy Mall Chick #1
Kisha Sierra 	... 	Cheesy Mall Chick #2 (as Kisha Olsen)
Michael Neithardt 	... 	Crew Member 

Data Technical :
!!! SAMPLE !!!
Audio.....: Lector Polish
Subtitles.: None
Format                           : AVI
Format/Info                      : Audio Video Interleave
File size                        : 691 MiB
Duration                         : 1h 27mn
Overall bit rate                 : 1 109 Kbps
Writing application              : VirtualDubMod 1.5.10.2 (build 2540/release)
Writing library                  : VirtualDubMod build 2540/release
Video
ID                               : 0
Format                           : MPEG-4 Visual
Format profile                   : Advanced Simple@L5
Format settings, BVOP            : Yes
Format settings, QPel            : No
Format settings, GMC             : No warppoints
Format settings, Matrix          : Default (H.263)
Codec ID                         : DX50
Codec ID/Hint                    : DivX 5
Duration                         : 1h 27mn
Bit rate                         : 969 Kbps
Width                            : 624 pixels
Height                           : 352 pixels
Display aspect ratio             : 16:9
Frame rate                       : 25.000 fps
Color space                      : YUV
Chroma subsampling               : 4:2:0
Bit depth                        : 8 bits
Scan type                        : Progressive
Bits/(Pixel*Frame)               : 0.176
Stream size                      : 604 MiB (87%)
Writing library                  : XviD 1.2.1 (UTC 2008-12-04)
Audio
ID                               : 1
Format                           : MPEG Audio
Format version                   : Version 1
Format profile                   : Layer 3
Mode                             : Joint stereo
Mode extension                   : MS Stereo
Codec ID                         : 55
Codec ID/Hint                    : MP3
Duration                         : 1h 27mn
Bit rate mode                    : Constant
Bit rate                         : 128 Kbps
Channel(s)                       : 2 channels
Sampling rate                    : 48.0 KHz
Stream size                      : 79.7 MiB (12%)
Alignment                        : Aligned on interleaves
Interleave, duration             : 24 ms (0.60 video frame)
Interleave, preload duration     : 504 ms

Screen : 
http://img638.imageshack.us/img638/8177/husbandforhire2008s1.jpg 
http://img593.imageshack.us/img593/9874/husbandforhire2008s2.jpg 
http://img692.imageshack.us/img692/4759/husbandforhire2008s3.jpg 
http://img97.imageshack.us/img97/3964/husbandforhire2008s4.jpg 
http://img194.imageshack.us/img194/8899/husbandforhire2008s5.jpg